<svg width="200" height="60" viewBox="0 0 200 60" xmlns="http://www.w3.org/2000/svg">
  <defs>
    <!-- Gradiente principal mejorado -->
    <linearGradient id="logoGradient" x1="0%" y1="0%" x2="100%" y2="100%">
      <stop offset="0%" style="stop-color:#ff6b6b;stop-opacity:1" />
      <stop offset="25%" style="stop-color:#ee5a52;stop-opacity:1" />
      <stop offset="50%" style="stop-color:#dc2626;stop-opacity:1" />
      <stop offset="75%" style="stop-color:#b91c1c;stop-opacity:1" />
      <stop offset="100%" style="stop-color:#991b1b;stop-opacity:1" />
    </linearGradient>
    
    <!-- Gradiente de texto mejorado -->
    <linearGradient id="textGradient" x1="0%" y1="0%" x2="100%" y2="0%">
      <stop offset="0%" style="stop-color:#ffffff;stop-opacity:1" />
      <stop offset="50%" style="stop-color:#f3f4f6;stop-opacity:1" />
      <stop offset="100%" style="stop-color:#e5e7eb;stop-opacity:1" />
    </linearGradient>
    
    <!-- Gradiente para el ojo -->
    <radialGradient id="eyeGradient" cx="50%" cy="40%" r="60%">
      <stop offset="0%" style="stop-color:#ffffff;stop-opacity:1" />
      <stop offset="70%" style="stop-color:#f8fafc;stop-opacity:1" />
      <stop offset="100%" style="stop-color:#e2e8f0;stop-opacity:1" />
    </radialGradient>
    
    <!-- Gradiente para la pupila -->
    <radialGradient id="pupilGradient" cx="40%" cy="40%" r="60%">
      <stop offset="0%" style="stop-color:#1e293b;stop-opacity:1" />
      <stop offset="100%" style="stop-color:#0f172a;stop-opacity:1" />
    </radialGradient>
    
    <!-- Gradiente para el iris -->
    <radialGradient id="irisGradient" cx="40%" cy="40%" r="60%">
      <stop offset="0%" style="stop-color:#475569;stop-opacity:1" />
      <stop offset="100%" style="stop-color:#334155;stop-opacity:1" />
    </radialGradient>
    
    <!-- Filtros de sombra -->
    <filter id="shadow" x="-50%" y="-50%" width="200%" height="200%">
      <feDropShadow dx="2" dy="2" stdDeviation="3" flood-color="#000000" flood-opacity="0.3"/>
    </filter>
    
    <filter id="glow">
      <feGaussianBlur stdDeviation="2" result="coloredBlur"/>
      <feMerge> 
        <feMergeNode in="coloredBlur"/>
        <feMergeNode in="SourceGraphic"/>
      </feMerge>
    </filter>
    
    <!-- Filtro para el brillo del ojo -->
    <filter id="eyeGlow">
      <feGaussianBlur stdDeviation="1" result="coloredBlur"/>
      <feMerge> 
        <feMergeNode in="coloredBlur"/>
        <feMergeNode in="SourceGraphic"/>
      </feMerge>
    </filter>
  </defs>
  
  <!-- Icono principal -->
  <g transform="translate(10, 10)">
    <!-- Círculo de fondo con sombra -->
    <circle cx="20" cy="20" r="18" fill="url(#logoGradient)" stroke="#1f2937" stroke-width="2" filter="url(#shadow)"/>
    
    <!-- Sombra interna del ojo -->
    <ellipse cx="20" cy="20" rx="16" ry="18" fill="url(#eyeGradient)" opacity="0.9"/>
    
    <!-- Ojo de anime realista -->
    <ellipse cx="20" cy="18" rx="12" ry="14" fill="url(#eyeGradient)" filter="url(#eyeGlow)"/>
    
    <!-- Iris con gradiente -->
    <ellipse cx="20" cy="18" rx="8" ry="10" fill="url(#irisGradient)"/>
    
    <!-- Pupila con profundidad -->
    <ellipse cx="20" cy="18" rx="5" ry="7" fill="url(#pupilGradient)"/>
    
    <!-- Reflejo principal del ojo -->
    <ellipse cx="18" cy="16" rx="3" ry="4" fill="#ffffff" opacity="0.9"/>
    
    <!-- Reflejo secundario más pequeño -->
    <ellipse cx="22" cy="15" rx="1.5" ry="2" fill="#ffffff" opacity="0.7"/>
    
    <!-- Reflejo terciario -->
    <ellipse cx="16" cy="20" rx="1" ry="1.5" fill="#ffffff" opacity="0.5"/>
    
    <!-- Pestañas superiores -->
    <path d="M 8 12 Q 12 10, 16 12 Q 20 14, 24 12 Q 28 10, 32 12" 
          stroke="#1f2937" stroke-width="1.5" fill="none" stroke-linecap="round" opacity="0.8"/>
    <path d="M 8 13 Q 12 11, 16 13 Q 20 15, 24 13 Q 28 11, 32 13" 
          stroke="#1f2937" stroke-width="1" fill="none" stroke-linecap="round" opacity="0.6"/>
    
    <!-- Pestañas inferiores -->
    <path d="M 8 24 Q 12 26, 16 24 Q 20 22, 24 24 Q 28 26, 32 24" 
          stroke="#1f2937" stroke-width="1" fill="none" stroke-linecap="round" opacity="0.6"/>
    
    <!-- Ondas de streaming mejoradas -->
    <path d="M 6 30 Q 10 28, 14 30 Q 18 32, 22 30 Q 26 28, 30 30 Q 34 32, 38 30" 
          stroke="#ffffff" stroke-width="2.5" fill="none" stroke-linecap="round" opacity="0.9"/>
    <path d="M 6 33 Q 10 31, 14 33 Q 18 35, 22 33 Q 26 31, 30 33 Q 34 35, 38 33" 
          stroke="#ffffff" stroke-width="2" fill="none" stroke-linecap="round" opacity="0.7"/>
    <path d="M 6 36 Q 10 34, 14 36 Q 18 38, 22 36 Q 26 34, 30 36 Q 34 38, 38 36" 
          stroke="#ffffff" stroke-width="1.5" fill="none" stroke-linecap="round" opacity="0.5"/>
    
    <!-- Efecto de brillo en el borde -->
    <circle cx="20" cy="20" r="17" fill="none" stroke="#ffffff" stroke-width="1" opacity="0.3"/>
  </g>
  
  <!-- Texto del logo mejorado -->
  <g transform="translate(60, 15)">
    <text x="0" y="25" font-family="Inter, sans-serif" font-size="24" font-weight="700" fill="url(#textGradient)" filter="url(#glow)">
      Anime
    </text>
    <text x="0" y="45" font-family="Inter, sans-serif" font-size="24" font-weight="700" fill="url(#textGradient)" filter="url(#glow)">
      Zone
    </text>
  </g>
  
  <!-- Efectos de partículas -->
  <circle cx="15" cy="15" r="1" fill="#ff6b6b" opacity="0.6" filter="url(#glow)"/>
  <circle cx="35" cy="25" r="0.8" fill="#ff6b6b" opacity="0.4" filter="url(#glow)"/>
  <circle cx="25" cy="35" r="0.6" fill="#ff6b6b" opacity="0.5" filter="url(#glow)"/>
</svg>
